<svg id="Layer_1" xmlns="http://www.w3.org/2000/svg" viewBox="0 0 157.49 44.52"><style>.st0{fill:#334049}.st1{fill:#0067b9}</style><path class="st0" d="M91.32 1.45h5.95v32.71h-5.95zm28.63 13.8c3.03 0 4.35 2.39 4.53 5.66v13.32l5.82.01V20.11c0-6.07-3.39-9.88-9.07-9.88-2.76 0-5.85 1.21-6.92 2.01h-.01v-1.96l-4.95.01v23.85l5.95-.01V20.9c0-3.65 1.62-5.65 4.65-5.65zm-19.59-4.84h5.93v23.74h-5.93zm0-8.96h5.93v5.69h-5.93zm49.92 8.81v2.22c-1.02-1.02-3.2-2.22-7.13-2.22-5.97 0-10.85 4.54-10.85 11.45 0 6.48 4.75 11.56 10.98 11.56 3.73 0 6.77-2.99 6.77-2.99.08 2.47-.06 3.04-.06 3.04-.52 3.12-2.79 5.21-6.18 5.21-3.25 0-4.5-1.84-4.79-2.34l-4.71 1.87c1.23 2.28 3.94 5.51 9.5 5.51 6.88 0 11.16-3.93 11.38-10.25V10.26h-4.91zm-6.99 17.59c-3.14 0-5.69-2.84-5.69-6.33s2.55-6.33 5.69-6.33c3.14 0 5.69 2.84 5.69 6.33s-2.56 6.33-5.69 6.33z"/><path class="st1" d="M41.45 10.29h4.87v4.95h-4.87zm-8.05-.02h4.96v4.94H33.4z"/><path class="st0" d="M14.21 14.27c-3.65-.62-6.66-1.36-6.66-4.24 0-1.98 2.15-4.19 5.23-4.19 2.77 0 4.78 1.6 5.46 4.24l.05.21L23.69 8l-.06-.16C22.03 3.25 18.05.5 13 .5 6.49.5 1.58 4.78 1.58 10.45c0 7.29 6.36 8.36 10.57 9.06 4.66.81 7.17 1.82 7.1 4.82-.07 2.91-2.97 4.65-5.74 4.65-3.65 0-5.89-1.64-6.66-4.88l-.1-.33-5.4 2.27.05.16c1.65 4.86 6.3 7.97 11.59 7.97 7.3 0 12.21-3.86 12.21-9.82.02-7.27-5.86-9.2-10.99-10.08zm74.1-3.81a8.4 8.4 0 0 0-1.06-.06c-2.81 0-4.6 1.01-5.93 1.91v-2.06h-4.99v23.9h5.9V20.63c0-2.66 2.16-5.08 4.82-5.08.46 0 .93.08 1.25.19v-5.28z"/><path class="st1" d="M43.9 23.88c-.69 2.88-2.84 4.5-5.32 4.5-2.69 0-4.88-1.99-5.32-4.65-.06-.51-.07-1.53-.07-1.98v-.22l.02-6.24h-5.75l-.03 5.08v2.68c0 6.35 4.8 11.12 11.19 11.12 5.23 0 9.13-3.29 10.45-7.89l-5.17-2.4z"/><path class="st0" d="M73.13 24.11c.05-.27.18-1.23.18-1.87 0-5.03-2.53-9.05-6.36-10.89-3.7-1.77-8.14-1.28-11.61 1.32-2.82 2.11-4.69 5.66-4.69 9.57 0 .64.06 1.26.15 1.87.87 5.78 5.66 10.22 11.44 10.22 3.57 0 6.67-1.91 8.72-4.5.4-.51 1-1.45 1-1.45l-4.43-2.07c-1.14 1.75-3.05 2.97-5.26 2.97-2.8 0-5.27-2.2-5.98-5.17h16.84zm-16.61-4.25c.73-2.68 2.99-4.29 5.77-4.29 2.77 0 5.04 1.61 5.77 4.29l.03.42h-11.6l.03-.42z"/><path class="st1" d="M27.43 4.31h5.92v5.88h-5.92z"/></svg>